<?xml version="1.0" encoding="UTF-8"?>
<svg id="Layer_2" data-name="Layer 2" xmlns="http://www.w3.org/2000/svg" xmlns:xlink="http://www.w3.org/1999/xlink" viewBox="0 0 400 68.86">
  <defs>
    <style>
      .cls-1 {
        fill: url(#linear-gradient-2);
      }

      .cls-2 {
        fill: url(#linear-gradient-4);
      }

      .cls-3 {
        fill: url(#linear-gradient-3);
      }

      .cls-4 {
        fill: url(#linear-gradient-5);
      }

      .cls-5 {
        fill: #f3b643;
      }

      .cls-6 {
        fill: url(#linear-gradient);
      }
    </style>
    <linearGradient id="linear-gradient" x1="380.35" y1=".78" x2="380.35" y2="19.06" gradientUnits="userSpaceOnUse">
      <stop offset="0" stop-color="#ffcd7b"/>
      <stop offset=".74" stop-color="#d79020"/>
    </linearGradient>
    <linearGradient id="linear-gradient-2" x1="366.67" y1="27.83" x2="391.18" y2="27.83" xlink:href="#linear-gradient"/>
    <linearGradient id="linear-gradient-3" x1="365.23" y1="29.92" x2="375.18" y2="40.14" xlink:href="#linear-gradient"/>
    <linearGradient id="linear-gradient-4" x1="376.49" y1="49.13" x2="376.68" y2="45.08" xlink:href="#linear-gradient"/>
    <linearGradient id="linear-gradient-5" x1="366.56" y1="5.22" x2="374.36" y2="5.22" xlink:href="#linear-gradient"/>
  </defs>
  <g id="Layer_1-2" data-name="Layer 1">
    <g>
      <path class="cls-5" d="M7.83,56.31c0,2.21.76,3.86,2.29,4.93,1.53,1.07,3.48,1.61,5.85,1.61,1.13,0,2.19-.11,3.17-.32.98-.21,1.89-.67,2.73-1.36.84-.69,1.26-1.6,1.26-2.73,0-.63-.16-1.19-.49-1.69-.33-.5-.7-.9-1.11-1.21-.41-.31-1.05-.63-1.91-.94-.86-.31-1.58-.55-2.16-.69-.58-.15-1.46-.36-2.63-.64-1.17-.28-2.04-.5-2.63-.67-1.55-.36-2.89-.77-4.05-1.21-1.15-.45-2.29-1.05-3.43-1.81-1.13-.76-2-1.74-2.6-2.93-.6-1.19-.9-2.56-.9-4.11,0-3.4,1.37-6.04,4.12-7.91,2.75-1.87,5.96-2.8,9.64-2.8,2.71,0,5.14.36,7.27,1.09,2.13.73,3.91,1.98,5.33,3.74,1.43,1.77,2.14,3.96,2.14,6.57h-7.83c-.21-3.57-2.63-5.35-7.27-5.35-1.48,0-2.77.33-3.89.99-1.12.66-1.67,1.67-1.67,3.02s.59,2.24,1.78,2.75c1.19.51,4.25,1.38,9.2,2.6,7.28,1.45,10.92,4.89,10.92,10.31,0,3.37-1.33,6.1-3.99,8.18-2.66,2.08-6.43,3.12-11.31,3.12-2.1,0-4.07-.25-5.93-.74s-3.52-1.23-5-2.21c-1.48-.97-2.65-2.29-3.5-3.94C.38,60.31-.03,58.43,0,56.31h7.83ZM46.22,31.82h8.3l13.76,37.03h-8.4l-2.78-8.25h-13.76l-2.89,8.25h-8.14l13.91-37.03ZM45.45,54.54h9.53l-4.64-13.59h-.1l-4.79,13.59ZM96.41,44.57c-.28-1.75-1.19-3.22-2.73-4.41-1.55-1.19-3.32-1.78-5.31-1.78-2.3,0-4.23.59-5.77,1.78-1.55,1.19-2.64,2.67-3.27,4.44-.64,1.77-.95,3.74-.95,5.92,0,3.31.82,6.11,2.47,8.4,1.65,2.3,4.16,3.45,7.52,3.45,2.4,0,4.32-.71,5.75-2.13,1.43-1.42,2.29-3.35,2.6-5.8h7.83c-.41,4.46-2.08,7.98-5,10.56-2.92,2.58-6.65,3.87-11.18,3.87-5.53,0-9.93-1.73-13.19-5.2-3.26-3.47-4.9-7.85-4.9-13.14s1.63-9.85,4.9-13.38c3.26-3.54,7.66-5.3,13.19-5.3,4.16,0,7.72,1.13,10.69,3.4,2.97,2.26,4.7,5.38,5.18,9.34h-7.83ZM108.88,50.51c0-5.39,1.63-9.85,4.9-13.39,3.26-3.54,7.66-5.3,13.19-5.3s9.93,1.77,13.19,5.3c3.26,3.54,4.9,8,4.9,13.39s-1.63,9.67-4.9,13.14c-3.26,3.47-7.66,5.21-13.19,5.21s-9.93-1.74-13.19-5.21c-3.26-3.47-4.9-7.85-4.9-13.14ZM116.97,50.51c0,3.31.82,6.11,2.47,8.4,1.65,2.3,4.16,3.45,7.52,3.45s5.87-1.15,7.52-3.45c1.65-2.3,2.47-5.1,2.47-8.4,0-2.18-.32-4.16-.95-5.92-.64-1.77-1.73-3.25-3.27-4.44-1.55-1.19-3.47-1.78-5.77-1.78s-4.23.59-5.77,1.78c-1.55,1.19-2.64,2.67-3.27,4.44-.64,1.77-.95,3.74-.95,5.92ZM150.98,31.82h11.39l8.61,25.47h.1l8.14-25.47h11.39v37.03h-7.57v-26.24h-.1l-9.02,26.24h-6.24l-9.02-25.98h-.1v25.98h-7.57V31.82ZM198.13,31.83h17.31c7.83,0,11.75,3.06,11.75,9.18,0,3.53-1.67,6.1-5,7.73,2.23.62,3.92,1.76,5.05,3.4,1.13,1.64,1.7,3.64,1.7,5.99,0,3.53-1.25,6.2-3.76,8.01-2.51,1.82-5.58,2.72-9.22,2.72h-17.83V31.83ZM206.22,46.81h8.19c3.3,0,4.95-1.47,4.95-4.41s-1.86-4.25-5.57-4.25h-7.57v8.66ZM206.22,62.53h8.66c3.98,0,5.98-1.62,5.98-4.88,0-3.53-1.94-5.29-5.82-5.29h-8.81v10.16ZM244.87,31.83h8.3l13.76,37.03h-8.4l-2.78-8.25h-13.76l-2.89,8.25h-8.14l13.91-37.03ZM244.1,54.54h9.53l-4.64-13.59h-.1l-4.79,13.59ZM270.53,31.83h8.04l15.36,24.84h.1v-24.84h7.57v37.03h-8.09l-15.3-24.79h-.1v24.79h-7.57V31.83ZM309.13,31.82h8.09v15.35l14.38-15.35h10.1l-14.38,14.63,15.77,22.41h-10.15l-11.08-16.65-4.64,4.72v11.93h-8.09V31.82Z"/>
      <g>
        <path class="cls-6" d="M375.43.78c.13,0,.29.01.43.02.74.04,1.47.16,2.2.26l.02,3.49c1.62.3,3.25.76,4.73,1.47,3.16,1.51,5.69,4.52,6.6,7.91.32,1.19.48,2.46.47,3.69l-3.59,1.44c-.04-1.61-.26-3.2-.81-4.71-1-2.74-3.2-5.27-5.77-6.64-1.62-.87-3.43-1.4-5.24-1.74l-.05-3.48c-1.2-.21-2.42-.31-3.63-.29l3.56-1.42c.36,0,.72-.01,1.07,0Z"/>
        <path class="cls-1" d="M372.08,11.33s.06,0,.05.02c-1.33.61-1.86,1.91-1.84,3.32.04,2.64,2.01,3.26,4.08,4.12,2.51,1.04,5.08,1.9,7.63,2.83,5.16,1.87,9.06,5.29,9.19,11.13,0,.32,0,.64,0,.95-.09,4.34-2.31,7.76-6.31,9.44-1,.42-2.02.78-3.03,1.18-.03,0-.04,0-.02-.02,2.64-1.24,4.59-3.5,5.35-6.33.57-2.14.56-4.75-.07-6.88-1.27-4.26-4.85-6.68-8.85-8.11-2.49-.89-4.99-1.75-7.44-2.76-2.02-.84-4-1.44-4.12-4-.08-1.76.58-2.92,2.17-3.63,1.03-.46,2.18-.86,3.24-1.27Z"/>
        <path class="cls-3" d="M380.46,37.49s.05,0,.05.02c-1.1.42-2.27.96-3.38,1.31-1.41.45-3.37.39-4.82.15-2.35-.4-4.8-1.69-5.9-3.88-.55-1.1-.78-2.37-.78-3.6l-.02-.05-7.38-.59c.03-.05.11-.07.16-.09,1.14-.47,2.29-.89,3.44-1.33l7.4.59s.04.61.05.7c.22,2.76,1.44,4.68,3.91,5.94,1.98,1.01,5.13,1.38,7.29.83Z"/>
        <polygon class="cls-2" points="378.39 44.19 378.4 48.36 374.8 49.78 374.78 45.59 378.39 44.19"/>
        <path class="cls-4" d="M366.56,6.21c1.45-.52,2.87-1.23,4.38-1.6,1.11-.27,2.27-.41,3.42-.41l-.3.13-3.28,1.28c-1.41.01-2.83.2-4.17.61-.04,0-.05,0-.05-.02Z"/>
        <path class="cls-5" d="M372.7,1.2c.61.05,1.2.13,1.8.23l.02,4.53c1.68.3,3.22.78,4.64,1.43,2.03.94,3.72,2.42,5.09,4.43,1.37,2.01,2.06,4.41,2.08,7.22l-7.42-.6c-.23-3.85-2.53-5.95-6.93-6.31-1.4-.11-2.63.14-3.68.77-1.05.62-1.57,1.66-1.56,3.12.01,1.42.58,2.45,1.71,3.09,1.13.64,4.04,1.81,8.74,3.5,6.91,2.12,10.39,6.09,10.44,11.91.03,3.62-1.21,6.44-3.72,8.47-2.2,1.79-5.23,2.64-9.07,2.57l.02,4.17c-.59.01-1.19,0-1.8-.05-.64-.05-1.27-.14-1.9-.26l-.02-4.21c-1.23-.22-2.42-.55-3.55-.98-1.76-.67-3.35-1.59-4.76-2.75-1.41-1.16-2.53-2.66-3.35-4.5-.83-1.84-1.23-3.89-1.22-6.17l7.42.6c.02,2.38.75,4.2,2.21,5.47,1.46,1.27,3.31,2,5.56,2.18,1.08.09,2.08.05,3-.1.93-.15,1.79-.57,2.58-1.25.79-.68,1.18-1.62,1.17-2.83,0-.67-.17-1.29-.48-1.85-.31-.56-.67-1.02-1.06-1.39-.39-.37-1-.75-1.82-1.16-.82-.4-1.5-.71-2.06-.91-.55-.2-1.39-.5-2.5-.89-1.11-.39-1.94-.7-2.5-.92-1.47-.51-2.75-1.05-3.84-1.61-1.09-.57-2.18-1.3-3.26-2.21-1.08-.9-1.91-2.02-2.49-3.34-.58-1.32-.88-2.82-.89-4.49-.03-3.65,1.25-6.38,3.84-8.17,2.23-1.54,4.79-2.31,7.68-2.32l-.02-4.5c.63-.01,1.26.03,1.89.08Z"/>
        <path class="cls-5" d="M374.73,50.54c-13.93,0-25.27-11.34-25.27-25.27S360.8,0,374.73,0s25.27,11.34,25.27,25.27-11.34,25.27-25.27,25.27ZM374.73,2.64c-12.48,0-22.63,10.15-22.63,22.63s10.15,22.63,22.63,22.63,22.63-10.15,22.63-22.63-10.15-22.63-22.63-22.63Z"/>
      </g>
    </g>
  </g>
</svg>