<svg width="154" height="35" viewBox="0 0 154 35" fill="none" xmlns="http://www.w3.org/2000/svg">
<path d="M40.5145 12.7571H35.8001C33.0656 12.7571 30.4661 13.9447 28.6819 16.0171L21.2329 24.6515V34.5154C23.6367 34.18 24.8945 32.564 24.8945 32.564L40.9944 13.8422C41.3764 13.4231 41.0782 12.7524 40.5145 12.7524V12.7571Z" fill="#E10600"></path>
<path d="M0.651353 12.7571H5.36578C8.10033 12.7571 10.6998 13.9447 12.484 16.0171L19.933 24.6515V34.5154C17.5292 34.18 16.2714 32.564 16.2714 32.564L0.171525 13.8422C-0.210474 13.4231 0.0876715 12.7524 0.651353 12.7524V12.7571Z" fill="#E10600"></path>
<path d="M30.1025 0.643919V10.261C30.1025 11.6255 29.6134 12.9435 28.7189 13.9774L21.228 22.6583V9.19913L28.9798 0.224775C29.3665 -0.22697 30.1072 0.0478026 30.1072 0.643919H30.1025Z" fill="#E10600"></path>
<path d="M11.063 0.643919V10.261C11.063 11.6255 11.5521 12.9435 12.4466 13.9774L19.9375 22.6583V9.19913L12.1904 0.224775C11.8037 -0.22697 11.063 0.0478026 11.063 0.643919Z" fill="#E10600"></path>
<path d="M153.171 13.433C153.567 13.8289 153.768 14.3086 153.768 14.8674C153.768 15.4263 153.572 15.906 153.171 16.3018C152.775 16.6977 152.296 16.898 151.737 16.898C151.178 16.898 150.707 16.7024 150.311 16.3018C149.915 15.906 149.715 15.4263 149.715 14.8674C149.715 14.3086 149.91 13.8289 150.306 13.433C150.702 13.0372 151.182 12.8369 151.746 12.8369C152.31 12.8369 152.775 13.0325 153.171 13.433ZM153.367 14.8721C153.367 14.4203 153.209 14.0338 152.887 13.7078C152.566 13.3818 152.184 13.2235 151.746 13.2235C151.308 13.2235 150.912 13.3865 150.595 13.7031C150.279 14.0245 150.125 14.4157 150.125 14.8721C150.125 15.3285 150.279 15.7197 150.595 16.041C150.907 16.3624 151.289 16.5207 151.741 16.5207C152.193 16.5207 152.571 16.3624 152.892 16.041C153.213 15.7197 153.372 15.3285 153.372 14.8721M150.945 16.0597V13.7171H151.779C152.044 13.7171 152.249 13.759 152.393 13.8475C152.584 13.9872 152.678 14.1782 152.678 14.4203C152.678 14.7743 152.515 15.0072 152.193 15.1236C152.272 15.2447 152.463 15.5567 152.766 16.0597H152.161L151.648 15.1934H151.466V16.0597H150.945ZM151.466 14.1735V14.7277H151.746C152.025 14.7277 152.161 14.6346 152.161 14.4436C152.161 14.2667 152.021 14.1735 151.746 14.1735H151.466Z" fill="#00B74F"></path>
<path d="M150.134 18.979H147.688C146.272 18.979 144.926 19.5937 143.999 20.6696L140.137 25.1451V30.2587C141.385 30.0817 142.037 29.248 142.037 29.248L150.385 19.5425C150.581 19.3283 150.427 18.979 150.139 18.979H150.134Z" fill="#E10600"></path>
<path d="M144.292 27.0127L143.16 28.2841C142.48 29.0479 142.461 30.1982 143.118 30.9853C144.287 32.3824 146.039 34.5666 146.039 34.5666H150.488L144.292 27.0174V27.0127Z" fill="#00B74F"></path>
<path d="M53.1066 34.567L45.7881 12.7715H50.4606L55.7853 29.5233L61.082 12.7715H65.7871L58.436 34.567H53.1113H53.1066Z" fill="#00B74F"></path>
<path d="M75.8581 12.7715C77.9451 12.7715 79.72 13.4887 81.1549 14.8905C82.5897 16.2923 83.3024 18.0341 83.3024 20.0925C83.3024 22.151 82.585 23.8928 81.1549 25.2946C79.72 26.6964 77.9451 27.4136 75.8581 27.4136H72.0288V34.5763H67.729V12.7715H75.8581ZM75.8581 23.3898C77.6936 23.3898 79.0352 21.9554 79.0352 20.0879C79.0352 18.2204 77.6936 16.786 75.8581 16.786H72.0288V23.3852H75.8581V23.3898Z" fill="#00B74F"></path>
<path d="M101.359 28.2472C101.359 30.0822 100.707 31.6097 99.3979 32.7926C98.0888 33.9756 96.4723 34.567 94.5716 34.567H85.3198V12.7715H93.9148C95.7829 12.7715 97.3388 13.3629 98.6199 14.5133C99.8963 15.6636 100.553 17.1306 100.553 18.905C100.553 20.6793 99.8684 22.1743 98.4988 23.2641C100.399 24.3538 101.364 26.0351 101.364 28.2472H101.359ZM89.615 16.786V21.5828H93.9148C95.2565 21.5828 96.2487 20.5536 96.2487 19.1844C96.2487 17.8152 95.2844 16.786 93.9148 16.786H89.615ZM94.567 30.5479C96.0298 30.5479 97.0919 29.4581 97.0919 27.9632C97.0919 26.4682 96.0344 25.411 94.567 25.411H89.615V30.5479H94.567Z" fill="#00B74F"></path>
<path d="M133.126 20.2742C134.249 21.4245 134.808 22.9846 134.808 25.0058V34.567H130.792V25.5041C130.792 23.4177 129.576 22.2954 127.708 22.2954C125.621 22.2954 124.284 23.5714 124.284 26.1562V34.5623H120.269V18.9934H124.284V20.7352C125.249 19.2729 126.809 18.5557 128.924 18.5557C130.638 18.5557 132.041 19.1145 133.131 20.2695L133.126 20.2742Z" fill="#00B74F"></path>
<path d="M140.141 25.8488V34.567H136.125V12.7715H140.141V25.8488Z" fill="#00B74F"></path>
<path d="M114.925 18.9978V20.8328C113.709 19.3052 112.028 18.5601 109.847 18.5601C107.667 18.5601 105.986 19.3704 104.49 20.9585C103.027 22.5466 102.277 24.4747 102.277 26.78C102.277 29.0852 103.023 31.0459 104.49 32.634C105.986 34.2221 107.76 34.9998 109.847 34.9998C111.934 34.9998 113.709 34.2547 114.925 32.7271V34.5621H118.941V18.9932H114.925V18.9978ZM110.565 31.2741C108.073 31.2741 106.051 29.2529 106.051 26.7613C106.051 24.2697 108.073 22.2485 110.565 22.2485C113.057 22.2485 115.079 24.2697 115.079 26.7613C115.079 29.2529 113.057 31.2741 110.565 31.2741Z" fill="#00B74F"></path>
</svg>
