<svg width="115" height="20" viewBox="0 0 115 20" fill="none" xmlns="http://www.w3.org/2000/svg">
<path d="M27.6004 9.99974H20.2541C20.1855 11.5229 20.8034 12.6487 22.6571 12.6487C23.9616 12.6487 25.2661 12.2514 25.9526 11.9865L26.2959 14.1719C25.2661 14.6355 23.687 15.0328 21.8332 15.0328C18.675 15.0328 16.8213 13.311 16.8213 10.3971C16.8213 8.60901 17.4392 6.62225 18.5377 5.23153C19.7049 3.5759 21.5586 2.58252 23.8243 2.58252C26.5705 2.58252 28.1497 4.1057 28.1497 6.82093C28.1497 7.48318 27.9437 8.94013 27.6004 9.99974ZM23.4123 4.6355C22.3825 4.6355 21.4899 5.29775 20.872 6.4898C20.5974 7.0196 20.5974 7.15205 20.3914 7.74808H24.7168C24.7855 7.41696 24.9228 6.82093 24.9228 6.42358C24.9914 5.23153 24.4422 4.6355 23.4123 4.6355Z" fill="#E12127"/>
<path d="M4.80597 18.344H1.51045L0 2.91357H3.57015L4.18806 13.3771L9.2 2.91357H12.8388L4.80597 18.344Z" fill="#E12127"/>
<path d="M35.4272 5.16537H33.5048L32.1317 11.4568C32.0631 11.6554 31.8571 12.715 33.0242 12.7813C33.3675 12.7813 33.8481 12.715 34.0541 12.6488C34.0541 12.6488 33.5048 15.0991 30.9645 15.0991C29.0422 15.0991 28.1496 13.7084 28.5616 11.5892L30.8959 1.05941C30.8959 1.05941 32.2004 -0.331323 34.672 0.0660279C34.2601 2.05278 34.0541 2.91371 34.0541 2.91371H35.9765L35.4272 5.16537Z" fill="#E12127"/>
<path d="M59.3198 5.16524H57.3974L56.0243 11.4566C55.9556 11.6553 55.7497 12.7149 56.9168 12.7811C57.2601 12.7811 57.7407 12.7149 57.9467 12.6487C57.9467 12.6487 57.3974 15.099 54.8571 15.099C52.9347 15.099 52.0422 13.7083 52.4541 11.5891L54.7198 1.19173C54.7198 1.19173 56.0243 -0.198999 58.4959 0.198352C58.084 2.18511 57.878 3.04603 57.878 3.04603H59.8004L59.3198 5.16524Z" fill="#E12127"/>
<path d="M51.4927 9.99974H44.1464C44.0777 11.5229 44.6957 12.6487 46.5494 12.6487C47.8539 12.6487 49.1583 12.2514 49.8449 11.9865L50.1882 14.1719C49.1583 14.6355 47.5792 15.0328 45.7255 15.0328C42.5673 15.0328 40.7822 13.311 40.7822 10.3971C40.7822 8.60901 41.4001 6.62225 42.43 5.23153C43.6658 3.5759 45.4509 2.58252 47.7166 2.58252C50.4628 2.58252 52.0419 4.1057 52.0419 6.82093C52.0419 7.48318 51.836 8.94013 51.4927 9.99974ZM47.3046 4.6355C46.2748 4.6355 45.3822 5.29775 44.7643 6.4898C44.4897 7.0196 44.4897 7.15205 44.2837 7.74808H48.6091C48.6777 7.41696 48.8151 6.82093 48.8151 6.42358C48.8837 5.23153 48.2658 4.6355 47.3046 4.6355Z" fill="#E12127"/>
<path d="M85.2031 5.16551C84.3792 4.83439 83.418 4.83439 82.8001 5.09929L80.6717 14.9006H77.1016L79.6419 3.57611C81.1523 2.78141 83.8986 2.31783 86.0269 2.71518L85.2031 5.16551Z" fill="#E12127"/>
<path d="M67.901 18.344L67.9697 14.9003H63.0951L61.104 18.344H57.6025L67.2145 2.91357H70.8533L71.4712 18.344H67.901ZM68.0383 6.35728L64.3309 12.7149H67.9697L68.0383 6.35728Z" fill="#E12127"/>
<path d="M32.0625 20C28.9043 20 27.1193 18.0132 27.3939 15.894C28.973 17.6159 31.9252 17.6821 33.6416 16.1589C34.2596 15.6291 34.8088 14.7682 35.2207 12.7152C35.976 9.20527 37.3491 2.84766 37.3491 2.84766H40.9193L38.4476 14.1059C37.6924 17.7483 35.2894 20 32.0625 20Z" fill="#E12127"/>
<path d="M14.4175 14.9003H10.916L13.525 2.91357H17.0265L14.4175 14.9003Z" fill="#E12127"/>
<path d="M75.5223 14.9003H71.9521L74.5611 2.91357H78.1312L75.5223 14.9003Z" fill="#E12127"/>
<path d="M83.6236 15.0327C83.0057 15.0327 82.5938 14.6354 82.5938 14.1056C82.5938 13.3771 83.2803 12.7148 84.0355 12.7148C84.6535 12.7148 85.0654 13.1122 85.0654 13.642C85.1341 14.3705 84.3788 15.0327 83.6236 15.0327Z" fill="#E12127"/>
<path d="M92.5495 7.74829C92.3435 7.61584 92.0003 7.41717 91.5883 7.41717C90.9018 7.41717 90.2838 7.81452 89.8033 8.60922C89.3227 9.3377 89.048 10.5297 89.048 11.3907C89.048 12.5165 89.5286 13.0463 90.2838 13.0463C90.7644 13.0463 91.245 12.9139 91.5197 12.7152L91.7256 14.3046C91.3137 14.7019 90.4898 14.9668 89.3913 14.9668C87.6062 14.9668 86.3018 13.6423 86.3018 11.5231C86.3018 10.1986 86.851 8.60922 87.6062 7.54962C88.4988 6.29134 89.8719 5.69531 91.1764 5.69531C92.2062 5.69531 93.0988 6.09266 93.3734 6.35756L92.5495 7.74829Z" fill="#E12127"/>
<path d="M99.4834 13.046C98.6595 14.2381 97.2864 15.0328 95.5699 15.0328C93.3729 15.0328 92.2744 13.7083 92.2744 11.7215C92.2744 10.397 92.755 8.80759 93.5102 7.74799C94.4028 6.48971 95.7073 5.76123 97.4237 5.76123C99.6207 5.76123 100.788 7.08573 100.788 9.00626C100.788 10.3308 100.239 11.9864 99.4834 13.046ZM97.2177 7.35064C96.5311 7.35064 95.9819 7.88044 95.6386 8.67514C95.2267 9.53607 94.8834 11.0592 94.8834 11.9864C94.8834 12.7811 95.0894 13.2447 95.8446 13.2447C96.5998 13.2447 97.0804 12.7811 97.4237 11.9864C97.8356 11.1255 98.1789 9.60229 98.1789 8.67514C98.1789 7.88044 97.9043 7.35064 97.2177 7.35064Z" fill="#E12127"/>
<path d="M114.931 8.67514L113.627 14.9003H110.949L112.322 8.54269C112.322 8.41024 112.391 8.34401 112.391 8.21156C112.391 7.68176 112.048 7.35064 111.292 7.35064C110.812 7.35064 110.331 7.54931 109.988 7.81421L108.478 14.9003H105.8L107.173 8.54269C107.173 8.41024 107.242 8.34401 107.242 8.21156C107.242 7.68176 106.83 7.35064 106.006 7.35064C105.594 7.35064 105.182 7.41686 104.839 7.54931L103.26 14.9003H100.582L102.436 6.42348C103.534 5.95991 104.839 5.76123 106.349 5.76123C107.585 5.76123 108.615 6.15858 109.027 6.68838C109.645 6.22481 110.812 5.76123 112.391 5.76123C114.313 5.76123 115.206 6.68838 115.206 8.01289C115 8.27779 115 8.47646 114.931 8.67514Z" fill="#E12127"/>
</svg>
