<?xml version="1.0" encoding="UTF-8"?> <svg xmlns="http://www.w3.org/2000/svg" id="Layer_1" data-name="Layer 1" version="1.1" viewBox="0 0 122 179"><defs><style> .cls-1 { fill: #231f20; } .cls-1, .cls-2, .cls-3, .cls-4, .cls-5 { fill-rule: evenodd; stroke-width: 0px; } .cls-2 { fill: #066055; } .cls-3 { fill: #f6921e; } .cls-4 { fill: #fff; } .cls-5 { fill: #acdbce; } </style></defs><path class="cls-3" d="M17.6,171.1l-6.3-1.6,3.9,2.3,2.4-.7h0ZM17.6,165.5l-1.6,4,1.6,1.6v-5.6h0ZM19.1,169.5l-1.5,1.6,6.1-1.6h-4.6ZM20.2,171.7l-2.5-.7,4.2,4.6-1.7-3.9h0ZM39.2,171.1l-6.3-1.6,3.9,2.3,2.4-.7h0ZM39.2,165.5l-1.6,4,1.6,1.6v-5.6h0ZM40.7,169.4l-1.5,1.6,6.1-1.6h-4.6ZM41.8,171.7l-2.5-.6,4.2,4.6-1.7-4h0ZM60.8,171l-6.3-1.6,3.9,2.3,2.4-.7h0ZM60.8,165.5l-1.6,4,1.6,1.6v-5.6h0ZM62.3,169.4l-1.5,1.6,6.1-1.6h-4.6ZM63.4,171.7l-2.5-.6,4.2,4.6-1.7-4h0ZM82.4,171l-6.3-1.6,3.8,2.3,2.5-.7h0ZM82.4,165.4l-1.6,4,1.6,1.6v-5.6h0ZM83.9,169.4l-1.5,1.6,6.1-1.6h-4.6ZM85,171.7l-2.5-.6,4.3,4.6-1.8-4h0ZM104,171l-6.3-1.6,3.9,2.3,2.4-.7h0ZM104,165.4l-1.6,4,1.6,1.6v-5.6h0ZM105.5,169.4l-1.5,1.6,6.1-1.6h-4.6ZM106.6,171.7l-2.6-.7,4.2,4.6-1.6-3.9h0ZM17.6,164.6l1.8,4.5h5.4l-4.2,2.7,1.9,4.6-4.9-2.9-4.7,2.9,1.8-4.6-4.4-2.7h5.5l1.8-4.5h0ZM17.7,173.2v-2.1l-4,4.6,4-2.5h0ZM39.2,164.6l1.8,4.5h5.3l-4.2,2.7,2,4.6-4.9-2.9-4.7,2.9,1.8-4.6-4.4-2.7h5.5l1.8-4.5h0ZM39.2,173.2v-2.1l-4,4.6,4-2.5h0ZM60.8,164.6l1.8,4.5h5.4l-4.2,2.7,1.9,4.6-4.9-2.9-4.7,2.9,1.8-4.6-4.4-2.7h5.4l1.9-4.5h0ZM60.8,173.2v-2.2l-4,4.6,4-2.4h0ZM82.4,164.6l1.8,4.4h5.4l-4.2,2.7,2,4.6-4.9-2.9-4.7,2.9,1.9-4.6-4.4-2.7h5.5l1.6-4.4h0ZM82.4,173.1v-2.1l-4,4.6,4-2.5h0ZM104,164.6l1.8,4.5h5.4l-4.2,2.7,1.9,4.6-4.9-2.9-4.7,2.9,1.9-4.6-4.5-2.7h5.5l1.8-4.5h0ZM104,173.1v-2.1l-4,4.6,4-2.5h0Z"></path><path class="cls-4" d="M43.1,102.8c2.2,0,4.2,0,6,.6.4,0,.8.3,1.1.6,2.2,2.5,0,4.9-2.4,6-.5.2-.9.4-1.4.6q0,0,0,0c.3.3.6.6.9,1,.6.6,1.3,1.3,2,1.9,1.2,1.1,2.3,2.4,3.6,3.6.3.2.8.7,1.1.7.8-1.1,1.6-2.2,2.4-3.3,1.7-2.5,3.4-5,4.8-7.7.6-1.1,1.3-2.2,1.3-3.6.4,0,3.7-.2,3.9,0,0,.2.2.4.3.6.5.8.7,1.6,1.1,2.4,1,2.1,2,4.2,3.1,6.2.4.8.9,1.7,1.3,2.5.4.7.8,1.3,1.3,1.9.3.5.6,1.1,1.2,1.5,0,0,0,0,0,0h0c1-1,1.2-3.6,1.3-5,0-.3,0-.5,0-.8,0-.9,0-1.9,0-2.8,0-.9,0-1.8,0-2.6,0-.7,0-1.5,0-2.1s.2-1-.4-1.6-.2-.3,0-.3c.5-.2,4.3,0,4.6,0,.6.4,1,1.8,1.4,2.4.9,1.9,1.8,3.7,2.6,5.6.3.6.6,1.2.9,1.8.2.4.4,1,.7,1.4,0,0,.2.3.4.3,1.6-2.7,3.1-5.3,4.6-8,.5-.8.9-1.7,1.4-2.5.2-.3.3-.7.7-.9.8-.4,2.9-.2,4-.2h.3c0,0,0,0,0,0q0,0,0,0h.2q0,0,0,0c-.8,1.2-.5,3.2-.5,4.7v4.1c0,1.2,0,2.4.2,3.5,0,.7.3,1.4.5,2,0,.3.3.6.5.9h0c.8-1.1,1.6-2.2,2.5-3.2,1.1-1.4,2.1-2.9,3-4.3.8-1.2,1.6-2.4,2.2-3.7.5-1,1.4-2.2,1.5-3.4,0,0,0-.5,0-.5h0c.4-.2,3.7,0,3.9,0,.2.2.3.5.4.7.4.8.8,1.7,1.2,2.6.4,1,1,2.1,1.5,3,.9,1.8,1.9,3.6,2.9,5.4.2.4,2.3,3.6,2.6,3.6h0c-.8,0-1.6.2-2.5.2s-.9,0-1.4,0c-1.8-3.4-3.5-6.9-5.3-10.3-.4-.7-.8-1.4-1.1-2.1,0-.2-.5-.7-.5-.9,0,0-.2,0-.3,0-.4.4-.6,1-.9,1.4-.5.9-1.1,1.9-1.7,2.8-.2.3-.8,1-.8,1.4.6,0,1.2,0,1.8,0,.4,0,.8,0,1.2,0h0c.3,0,.8,0,1.2,0h1.3c.2,0,.5,0,.7,0v.3c-.3.2-.6.4-.8.5-1.6.7-4.3.8-6.2.8-.6,1.1-1.2,2.2-1.7,3.3-.2.5-.6.9-.7,1.4,0,.4,0,.8,0,1.2,0,.2-.2.3-.2.4-.6,0-1.2,0-1.9,0s-.9,0-1.4,0-1.1,0-1.7,0c-1,0-2.1,0-3,0-.2,0-1,0-1,0h0c.2-.6.5-1.3.5-2,0-.7,0-1.5,0-2.2,0-1.9,0-3.8,0-5.7s0-3-.3-3c-.6,1-1.1,2-1.7,3-1,1.7-2,3.3-3,5-.4.6-.7,1.3-1.1,2s-.9,1.5-1.3,2.2c-.2.2-.3.5-.5.7-.3,0-1.6-2.5-1.8-2.9-1.8-3.3-3.6-6.6-5.5-9.9h0c-.3,1.4,0,3,0,4.5s-.2,4.1,0,6c0,.6.2,1.2.4,1.7,0,.2.3.4.3.6h0c-.3,0-.7,0-1.1,0-.8,0-1.5,0-2.3,0-1.1,0-2.3,0-3.4,0-.2,0-.4,0-.6,0-.3-.2-.7-1.2-.9-1.6-1.2-2.4-2.5-4.8-3.7-7.3-.4-.8-.8-1.7-1.2-2.5-.3-.6-.5-1.2-1-1.7s-.3-.2-.4-.2c0,.4-.6,1.1-.8,1.5-.5,1-1.1,1.9-1.6,2.9s-.6.9-.6,1.1q0,0,0,0c.9,0,1.9,0,2.9,0,.1,0,.5,0,.5,0q0,0,0,0c.4,0,.8,0,1.2,0s.3,0,.5,0,.8,0,.8.2c-.3.2-.6.4-.9.6-1,.4-2.2.6-3.4.7-.5,0-2.2,0-2.5.2-.4.2-.7,1-.9,1.4-.4.8-.8,1.5-1.2,2.3s-.3.7-.5,1c0,.3,0,.6,0,.8s0,.8,0,.8h-2.7c-.3,0-.7,0-1,0-.9,0-2,0-2.7-.4-1-.3-1.6-1.1-2.4-1.8-1.1-1.1-2.2-2.2-3.4-3.2-.4-.3-3.2-3.1-3.2-3.2s0,0,.2,0c.7,0,1.6,0,2.3,0,2.1-.5,3.8-1.2,3.6-3.6-.3-2.7-4-2.4-6.2-2.3q0,0,0,0h0v9.6c0,.6,0,1.3,0,1.9,0,.7,0,1.4.2,2,0,.4.5.7.5,1.1h-4.5c0,0,0-.2,0-.2,0-.3.3-.5.4-.8.3-.8.3-1.9.2-2.8v-2.9c0-1.9,0-3.9,0-5.7,0-.7,0-1.4-.2-2.1,0-.2-.3-.5-.3-.7h0c0-.2,1.1-.3,1.3-.3.5-.2,1.5,0,2.1,0,.2-.7,1-.5,1.5-.6h0ZM16.7,103.1c1.5,0,2.9,0,4.4,0q0,0-.1,0c-.3.4-.5.8-.6,1.2-.2,1.1,0,2.2-.1,3.3v4.4c0,.7-.1,1.4,0,2s.5,1.3.9,1.8c1.3,1.3,3.1,1.4,5.1,1.4s.4,0,.6,0c.6-.4,1.4-.4,2-.9,1.9-1.7,1.6-5.4,1.6-8s.1-3.3-.4-4.7c0,0-.2-.4-.1-.5.1,0,.1,0,.2,0h2.9c.2,0,1.1,0,1.1,0,0,.2-.3.9-.4,1.2-.2.7-.2,1.8,0,2.6v3.9c0,1.7,0,3.4,0,5.2,0,.5,0,1.1.2,1.5,0,.3.4.7.4,1h0c-.7,0-1.4,0-2.1,0h-1.8v-1.9h-.1c-.3.5-1,.8-1.5,1.1-1,.4-2,.8-3.1,1-2.1.4-5.2.2-6.8-.9-.6-.4-1.2-1-1.4-1.6-.5-1.2-.4-2.8-.4-4.2v-7.2c0-.2-.1-.4-.1-.6-.1-.5-.6-1-.3-1.3h0ZM2.6,103.1h8.4c.6,0,2.1-.2,2.5,0,.4.3.4,1.1.4,1.5s0,.6-.2.5c-.3,0-.5-.3-.8-.5s-.7-.2-1-.4c-1.4-.4-3.3-.2-4.9-.2s-1,0-1,0h0v5.9c.5,0,.9,0,1.4,0h5.4c.1,0,.8,0,.8,0h.1q0,0-.1,0c-.4.3-.9.5-1.4.6-.5.2-1.1.4-1.6.4-1.4.2-3,0-4.5,0h0q0,0,0,0v3.2c0,1.2,0,2.2.4,3.2,0,0,0,.4.3.5h0c0,0,0,0,0,0-.4,0-.9,0-1.4,0s-.5,0-.8,0c-.3,0-.6,0-1,0s-.8,0-1.2,0v-.3c.4-.3.6-1,.7-1.5.2-1.6,0-3.3,0-4.9v-5.2c0-.9,0-1.7,0-2.5,0-.3-.4-.8-.4-1,0,0,.2,0,.3,0h0Z"></path><path class="cls-4" d="M72.6,158.7c0-.2-.3-.3-.4-.5-.2-.4-.4-.7-.7-1.1-.5-.9-1-1.9-1.5-2.8-.3-.7-.6-1.4-1-2.1l-.3-.6c-.3-.3-1.1-.1-1.6-.1h0c0,.1-.2.1-.2.2,0,.3-.3.7-.4,1-.4.8-.8,1.5-1.2,2.2-.6.9-1.2,1.7-1.8,2.6-.3.4-.7.7-.9,1.2h0c.7.1,1.4.1,2.1.2,0-.3,0-.6,0-.9,0-.3,1-2.1,1.3-2.3.4-.2,1.2-.1,1.7-.1s1.2-.1,1.5.1c.2.1.3.4.4.6.3.5.6,1,.9,1.5,0,.3.3.7.5.9.2.1.5.1.7.1s.7.1.9,0h0q0,0,0,0h0ZM68.7,155.1q0-.1,0,0c-.6,0-1.6-.1-1.9,0h-.5q0-.1,0-.1c.5-.8,1-1.6,1.4-2.5.2.4,1.3,2.3,1.1,2.6h0ZM43.6,158.7c-.2-.3-.4-.6-.7-.9-.7-1.1-1.3-2.2-1.9-3.4-.3-.6-.6-1.3-.9-1.9,0-.2-.2-.5-.4-.7s-.9-.2-1.2-.1h-.7c0,.4-.2.7-.3,1-.6,1.4-1.5,2.7-2.5,4-.5.7-.9,1.5-1.6,2v.2c.7,0,1.4,0,2,.1,0-.4,0-.9,0-1.3,0-.3.9-1.8,1.2-1.9.5-.2,1.2-.1,1.8-.1s1.2-.1,1.5.1c.2.1.3.4.4.6.4.6.7,1.3,1,1.9,0,.2.2.3.3.5.2.1,1.4.2,1.6.1h0q.2-.1.2-.2h0ZM39.7,155c0,.1-2.2.1-2.5.1h0c0-.1.2-.3.2-.4.4-.7.9-1.4,1.3-2.1.2.4,1.2,2.1,1.1,2.4h0ZM26.3,151.8c-.6-.2-1.3-.1-2-.1s-1.6-.1-1.9,0c-.4,0-.9-.1-1.2,0-.4,0-.7,0-1.1-.1.1.3.2.5.3.8.1.6,0,1.3,0,2s.2,3.6-.3,4.2v.3h1.9c.4,0,.7,0,1.1-.1.9,0,1.9,0,2.7-.2.6-.2,1.2-.4,1.7-.8.5-.3,1-.7,1.2-1.2,1-2-.1-4.3-2.4-4.8h0ZM25.9,157.9c-.6.4-3.4.9-4,.2-.1-.2-.1-.4-.2-.6v-2.8c0-.7-.1-1.8,0-2.4.3,0,.7-.1,1-.1,1.1,0,2.2,0,3,.5.6.3,1,.8,1.2,1.3.7,1.3.3,3.2-1,3.9h0ZM101.8,155s-.1,0,0,0q-.1-.1,0,0c-.3-.1-.6,0-.8,0-.4,0-.8-.1-1.2,0h0c0-.1,0,0,0,.2,0,.2,0,.4.2.5,0,.7,0,1.8-.2,2.5h-.3c0,0-.2,0-.4.1-1.3,0-2.6-.2-3.5-.9-.7-.5-.9-1.1-1-1.8-.4-2.2,1.2-3.9,3.6-3.8,0,.1.2.1.3.1,1-.1,1.9.3,2.7.6,0,.1,0,.1,0,.1h0c0-.1,0-1,0-1.2h0q0-.1,0-.1c-.6,0-1.3,0-1.9-.1-.5.1-1.4-.1-1.8.1-.4,0-.8,0-1.1.2-.6,0-1.1.2-1.5.4-.5.3-1.1.5-1.4,1-1.1,1.3-1.3,3.5,0,4.7,2,1.7,5.3,1.2,8,1.1.1-1.1-.3-2.8.3-3.7h0ZM57.7,151.6c-.2,0-1.4,0-1.5.1h0c0,.3.2.9.2,1.2v4h0c0,.1,0,.1,0,.1h0c-.7-.8-1.4-1.5-2-2.3-.7-.6-1.3-1.3-2-2-.3-.3-.7-.9-1.2-1.1-.4-.1-1.5-.1-2-.1,0,.4.3.7.4,1.1v1.8c0,1.5,0,3.1-.6,4.3h0c.6.1,1.4.2,1.9.1,0,0,0-.4,0-.5-.2-.5-.2-1.1-.3-1.6,0-1.2,0-2.5,0-3.7h0q0,.1,0,.2c1.3,1.3,2.6,2.7,3.9,4s1,1.1,1.6,1.6c.3,0,1,.1,1.2-.1.2-.3,0-.8,0-1.1v-4.9c.2-.4.3-.8.4-1.1h0ZM85.9,151.6c-.2,0-.7-.1-.8,0h0c.4,1.6.2,3.5.2,5.2h-.2c0-.1-.2-.2-.3-.3-1.3-1.3-2.6-2.7-3.9-4s-.7-.9-1-1c-.2,0-.5-.1-.7,0h-1.3c0,.2.2.8.2,1.2,0,1.4,0,2.9,0,4.3,0,.7-.4,1.2-.5,1.8h1.9c0-.1,0-.4,0-.5-.5-1.5-.3-3.5-.3-5.3h0q0-.1,0-.1h0c.2.4.5.6.7.9.3.3.6.7,1,1l3,3c.3.3.6.7.9.9.2.1.9.2,1.1,0h0c.3-.3,0-1,0-1.4v-3.4c0-.8,0-1.6.3-2.3q0,0,0-.1c0,0-.4,0-.6,0h0Z"></path><path class="cls-1" d="M21.8,17.2s38.1-31.2,77.9,0c0,.1-15.2,29.8-8.6,66.7,0,0-9.5,7.1-29.8,2,0,0-14.2,5.1-30.2-1.8.1,0,5.8-31.5-9.3-66.9h0Z"></path><path class="cls-4" d="M20.6,16.4s38.1-31.2,77.9,0c0,.1-15.2,29.8-8.5,66.7,0,0-9.5,7.1-29.8,2,0,0-14.2,5.1-30.2-1.8,0,0,5.7-31.5-9.4-66.9h0Z"></path><path class="cls-5" d="M24.6,13.7c-.5.4-1,.7-1.4,1,.1.3,12.8,27.7,10,61.6.9.7,6.5,4.6,22.2,2.4.2,0,.4,0,.6,0,1.1-.2,2.5-.6,8.4.3,0,0,3.8.7,6.1.4v-1.5c-1.1,0-3.6,0-7.8-1.3,0,0-4.1-1-9.7.7h0c-1.1,0-6.5.9-7.4.7h-.4v-.5c0-.4,1.8-35.7-6.3-52.9l-1.2.6c1.1,3.1,8.4,25.7,5.4,52.6v.5h-.5c-2.1-.4-7.1-1.1-7.5-2.5h0v-.2c.1-.3,2.3-36.6-10.5-61.8h0ZM85.7,85.1c.5-.2,1-.4,1.4-.5-.7-5.5-4-36.5,5.9-63.5-2.3-2-23.6-19.2-53.2-7.1l.4,1.5c3.3-1.8,20.8-10,41.8.3l.4.2-.2.4c0,.3-9.8,25-8.2,53.2l1.6-.4c-.2-3.2-1.4-26.4,8.4-51.8l.2-.5.5.2c1.9.9,6.4,3.2,6.6,4.4h0c0,.1,0,.2,0,.2,0,.1-9.9,21.6-5.5,63.4h0ZM58.9,82.5h.2c0,0,.2,0,.2,0,0,0,12.3,3.7,22.6,1.1-.5-3.6-4.2-31,4.1-55l-1.7-1c-1.1,4.1-7.6,28.6-5.1,44.8v.4c0,0-.3,0-.3,0-.3,0-7.7,1.5-13.5-.3h0s-6.2-2.5-16.5,1.3v1.1c1.1-.3,3.5-.8,8.4-1.7.2,0,4.7-.5,10.3,1.5.6,0,7.4.9,10.7,0l.5-.2v.5c0,0,1,6.4,1,6.4v.3l-.2.2c-.2,0-4.4,2.9-20.6-.6-1.7.5-18.6,4.7-28.3-1.6-.1.7-.1,1.3-.2,1.7,2.9,1.3,14.8,5.6,28.4,1h0ZM52,7c11.3-1.9,28.3-1.1,45,12.9,0-.4.3-.7.4-1-1.2-1.2-29.9-27.1-68.7-4.3,1.4,3.4,11.9,29.6,10.7,54v3.2h.9c.3-3.3,1.6-25.1-5.7-47.2v-.3c0,0,.1-.2.1-.2,0-.1,3.7-3.4,10.8-5.6,6.5-2,17.3-3.4,32,1.2l.8-1.7c-3.2-1.2-23.1-7.8-43.5,4l-.5.3-.3-.5-3.1-6.7-.2-.3.3-.2c.1,0,8.6-5.6,21-7.6h0ZM96.6,20.7h0c-29.9-25.1-61.1-7.7-64.7-5.6l2.7,5.9c22.5-12.7,44.2-3.7,44.4-3.7l.4.2-.2.4-1.1,2.5v.5c-.1,0-.5-.1-.5-.1-26.2-8.3-40.2,2.4-42,4,7.9,23.9,5.6,47.6,5.6,47.8v.5h-.6l-1.8-.2h-.4v-4.1c1.2-25.8-10.7-53.7-10.8-54l-.2-.4.4-.2C48.9,1.7,66.9,3.5,78.3,7.2c10.9,3.6,17.9,9.5,19.5,10.9.4-1,.7-1.5.7-1.5C67.1-8,36.8,6.3,25.5,13.4c12.5,24.7,10.8,60,10.7,62.3.3.5,3.1,1.2,6.1,1.6,3-28.4-5.4-51.9-5.5-52.1v-.4c0,0,.3-.2.3-.2l2-1.1.5-.2.2.4c7.9,16.2,6.8,49.1,6.6,53.3,1.1,0,4.1-.4,6.6-.7,5.8-1.7,10-.7,10.2-.7,5.4,1.6,7.9,1.2,7.9,1.2h.6c0,0,0,.5,0,.5v2.8h-.4c-2.4.6-6.7-.2-6.9-.2-5.7-.8-7.1-.5-8-.3-.2,0-.4,0-.7,0-17.9,2.4-23-2.6-23.2-2.9h0v-.3c2.7-32.3-8.7-58.7-9.9-61.2-1.1.8-1.7,1.3-1.7,1.3,11.7,27.3,10.9,52.3,9.9,62.2,9.5,6.7,27.9,1.8,28.1,1.7h.2c13.7,3,18.7,1.3,19.7.9l-.8-5.6c-3.8.8-10.4,0-10.6,0h0c-5.3-1.9-9.8-1.5-9.8-1.5-6.2,1.1-8,1.6-8.6,1.8v.3h-.5c-.3,0-.5-.3-.5-.6s0-.2,0-.3v-2.2h.3c10.9-4.2,17.3-1.6,17.6-1.5,4.7,1.5,10.8.7,12.5.4-2.6-17.9,5.3-45.1,5.4-45.4l.2-.6.6.3,2.6,1.5.3.2-.4.4c-9,25.5-4.2,55-4.2,55.3v.4c0,0-.3,0-.3,0-10,2.7-21.9-.5-23.4-1-13.4,4.6-25.3.5-28.8-.9-.1.5-.1.8-.1.8,16,6.9,30.1,1.8,30.1,1.8,11.6,3,19.7,1.9,24.5.4-4.3-40.2,4.6-61.8,5.6-64-.4-.6-3-2.1-5.5-3.4-10.2,26.9-8.2,51.1-8.1,51.3v.4c0,0-.3,0-.3,0l-2.5.7h-.6c0,0,0-.5,0-.5-1.7-26.7,6.8-50.5,8.1-53.7-22.6-10.8-40.8.1-41,.2l-.6.3-.2-.6-.7-2.5v-.4c0,0,.3-.2.3-.2,16.7-7,30.7-4.7,39.6-1.5,9.5,3.5,15.2,8.7,15.3,8.7l.2.2-.3.5c-9.9,26.5-6.8,56.9-6,63.1,1.2-.6,1.9-1.1,1.9-1.1-5.2-28.5,2.8-52.8,6.6-62.3h0Z"></path><path class="cls-2" d="M80.1,33.9c-.3-.2-.7-.3-1.1-.3.3-.8.4-1.6.4-2.6,0-3-1.5-5.4-3.4-5.4s-1.9.7-2.5,1.7c-.7-1.4-2.2-2.4-3.8-2.4s-.7.1-1,.2c0-2.7-1.5-4.9-3.2-4.9s-1.5.4-2.1,1.1c-.3-2.1-1.6-3.7-3.3-3.7s-2.6,1.2-3.1,2.8c-.2-1.1-1-2-2.1-2s-2.1,1.1-2.1,2.4v.4c-.2-.1-.3-.2-.5-.2-1.2-.3-2.5.7-2.9,2.2-.2.7-.2,1.3,0,1.8,3.2-.8,7.1-.4,10.7,1.3,4.9,2.3,8,6.5,8.2,10.4,1-1.1,1.2-4.2,1.4-4.1,0,.2.7.8.9,1.7.3,1.3.6,3.3.3,4.4,0,.2,0,.3,0,.5-.5,1.9-1.4,3.6-2.5,4.6,1.2.4,3.1.2,5.1-.6,1.1-.5,2-1,2.7-1.6.8-.5,1.6-1.2,2.4-2,2-2.2,2.7-4.8,1.6-5.7h0Z"></path><path class="cls-2" d="M43.3,38.6c0-5.2,4.1-9.5,9.4-10.2-.7-.6-1.7-1.2-2.7-1.6-3.4-1.5-6.8-1.4-7.7.2-.3.5-.3,1.1,0,1.7,0,0,0,.1.2.1,0,0,0,.1,0,.2,0-.1,0-.2,0-.2-2.4-.4-4.7.4-5.6,2.2-1,1.9,0,4.4,2.2,5.9h.2c0,0,0,0,0,0-1.1,0-2,.4-2.4,1.1-.7,1.3.8,3.3,3.3,4.7h0c-.7.5-1.1.9-1.2,1.5-.2,1.5,2.2,2.9,5.4,3.2,1.3,0,2.5,0,3.5-.2,0,0,0,0,.2.2,0,0,0,0,0-.2-2.9-2.1-4.7-5.1-4.7-8.6h0Z"></path><path class="cls-2" d="M47.3,42.6c1.2,1,2,2.9,1.6,4.4-.2.9-1.1,1.8-1.9,2.2-1.7.9-4.1,0-6,.5,0,0,.4,1.3,1.7,2.4.2.2,3.9,3.7,7.2,3.1.9-.2.9-1.6.5-2.6.6.4,1.3.7,2.1.7,2.1.2,3.8-1,4-2.6,0-1.1-.6-2.1-1.8-2.7.8-.3,1.3-.9,1.4-1.6,0-1.2-1.4-2.3-3.3-2.5.2-.2.8-1.9-1-2.5-3.3-1-4.5,1.2-4.5,1.2h0Z"></path><path class="cls-2" d="M83.3,42.7c0-1-.6-1.8-1.4-2.3-.6,1-4,3.4-4.3,3.5-2,.9-4.3,1-5.6.8-.3.7-.7,1.4-1.2,2.1-1.1,1.3-3.7,2.5-3.7,2.5.5-.4,1-1.7,1-2.5s-.6-1.6-1.5-2c.9-1.8,1.5-3.2.7-4.3-.8-1-2.5-.4-2.5-.4,1.4-2.9,1.3-5.8-.3-6.3-.7-.2-1.8,0-1.9,0,0-2.8-1.3-5-3.3-5s-3.9,2.4-3.9,2.4c-.4-.8-1.5-1.2-2.2-1.1-2.3.2-3,3.3-3,3.2-2.1-.2-4.1,1.2-4.7,3.5-.2.7,0,2.1-.2,2.1,1-.3,2.1-.5,3.3-.5,5.8,0,10.3,4.3,10.3,9.6s-2.4,6.6-2.8,7.6c0,0-1.7,3-2.3,4.9-1.3,4.1-.9,7.8.7,8.9.6-1.6,2.7-3.5,5.9-4.6,1.1-.4,2.4-.7,3.8-.8,5.9-.6,9.3-4,8.7-4-.5,0-3.7-.3-3.7-.3.5-.3,2.3-1.5,2.9-2.8.7-1.2,2.9-3.4,2.9-3.4-4.5-.6-11.2,1.6-18.6,10.8.2-9.3,5.6-12.7,5.6-12.7,0,1.7.3,2.6.3,2.6.8-.9,2.2-1.9,4.3-2.2,3.8-.6,8.1.9,9.4,0,1-.6,1.1-2.5.8-3.9.4,0,.8,0,1.2,0,1.8,0,3.2-.9,3.2-2s0-.9-.5-1.3c1.4.1,2.6-1,2.6-2.4h0Z"></path><path class="cls-1" d="M101.1,123.6c-.4,0-.8,0-1.1.2-.4,0-.7.2-1.1.2s-1,.2-1.4.3c-.3,0-1.1.2-1.4.3-.2,0-.3,0-.4,0-.4,0-.9,0-1.2.3-.2,0-.5,0-.7,0-.4,0-1,0-1.3.2-.2,0-.4,0-.5,0h-.6c0-.3.2-.5.4-.7.5-.8.8-1.6,0-2.5-.3-.3-.5-.6-1-.7-.4.5-.5,1.1-.7,1.7s-.5,1.1-.8,1.6-.5,1.1-.9,1.4c-.4.2-1.5.4-2,.6s-1,.4-1.5.5c-.7.3-1.6.5-2.3,1q0-.1,0-.1c0,.1,0,.1,0,.2-.5.3-1,.5-1.5.8-.3.2-.6.4-1,.6-1.7,1-3.2,2.7-4.3,4.2-.2.3-.5.7-.6,1h-.3c0-.3,0-.5,0-.8,0-1.2-.2-2.2-1.3-2.6-.3-.1-.9-.2-1.3-.1-1.4,0-2.5.8-3.6,1.3-.4.2-.7.5-1.1.6-.6.1-1.1-.3-1.6-.4-.4-.1-.7.1-.7.5,0,.7,1.1.8,1.5,1.1,0,.1.2.3.3.4.6,1,.4,2.6,0,3.5-.3.6-.8,1.1-1.4,1.6-.3.1-.5.2-.7.3-.4,0-.8-.2-.8-.6s0-1,.2-1.4c0-.4.4-.8.6-1.1.5-.6,1.9-2.1.2-2.5-1.4-.3-4.4,1.6-5.5,2.3-.7.4-1.4.8-2,1.2-.8.5-1.4,1.3-2.5,1.4,0-.6-1.1-1.2-1-1.9,0-.4.4-.7.7-1,.6-.8,1.7-2.1.6-3-.3-.2-.7-.2-1-.4h0c0,.1-.2.2-.3.2-1,.3-1.7,1-2.2,1.8-.4.6-.6,1.3-.5,2.1,0,.4.3.9,0,1.3-.2.3-1.2,1-1.5,1.2-1.1.8-5.3,3.8-6.6,3.4h0c-.5.1-1-.2-1.4-.4,0-.3,1.1-1,1.4-1.3,1-1.1,3.5-4.6,1.3-5.6,0-.1,0,0,0,0h-.8c-.6.1-1.2.4-1.8.7-1.1.7-1.9,2.2-2.3,3.3-.2.6-.4,1.2-.5,1.9,0,.2-.4.3-.6.4-.4,0-.7.2-1.2.2h-2.1c-.2,0-.5,0-.8.1h0c0,.3.3.6.5.8.9.8,2.3.9,3.6.7.3-.1.6-.1.9-.2.3,0,.8.5,1,.7,1.1.9,2.7.6,3.9,0,1.6-.7,3.1-1.7,4.5-2.7s1.4-1.1,2.1-1.7c.3-.2.9-.8,1.2-.8s1.4,1.3,1.3,1.7c0,.3-.4.4-.5.7-.2.2-.3.5-.4.7-.3.9.2,1.8,1.2,1.2.8-.4,1.3-1.4,1.5-2.1,0-.3,0-.7.3-.9.3-.4.8-.7,1.2-1,2-1.6,4.7-3.2,7.6-3.2v.2c0,0-.4.4-.5.5-.8,1.1-1.5,2.3-1.1,3.8,0,.2.2.5.3.7.3,0,.7.4,1,.5s.7.1,1,.1c2.8-.2,3.7-3.4,3.5-5.8,0-.4,0-.7-.2-1.1,0-.4-.3-.7-.3-1.1.6,0,1.2,0,1.8-.1,1-.3,2.3-1.4,3.5-1.1.3.1.6.3.7.7.2.6,0,1.2,0,1.8-.2,1-.5,1.9-.8,2.8,0,.3,0,.6-.3.9,0,.4,1,1.6,1.3,2,.2,0,.4-.2.5-.4.4-.4.4-1.1.6-1.6.5-1.4,1-2.7,1.6-4,.3-.4.5-.8.7-1.2,1.1-1.8,2.3-3.7,4.4-4.5.8-.3,1.8-.3,2.6-.5.5-.1,1.1-.2,1.7-.4.3-.1.5-.2.9-.2,0,.4-.3.8-.5,1.1,0,0-.2.5-.3.6-.4.7-.8,1.4-1.2,2.2-.2.5-.6,1-.7,1.5,0,.3-.2.7-.3,1,0,.4,0,.9-.3,1.1,0,.4,0,.8,0,1.1,0,.7.2,1.5.5,2,0,.2.2.3.3.5.7,1.3,2.5,2,4.1,2.1.4,0,.9,0,1.2-.1q0,.1,0,0h0c.4-.1.7-.2,1.1-.2.6-.2,1.1-.5,1.7-.7,2-.9,3.5-2.5,4.6-4.3.3-.4.6-.8.5-1.2h0c0-.1,0-.1,0-.1,0,.1-.5.6-.6.8-.6,1.2-1.8,2.3-3,3-.3.2-.5.3-.8.5-.4.1-.8.3-1.2.5-.4.1-.7.2-1.1.3-.9,0-1.8,0-2.6-.3-3.9-1.7-1-8.2.4-10.5.3-.5.6-1.1,1-1.6,0,0,.2,0,.3,0,1.1-.3,2.2-.5,3.4-.8.6-.2,1.3-.3,1.9-.5,1.5-.4,3-.9,4.4-1.5.2,0,.4-.2.6-.2.3,0,.5-.3.7-.4.2-.2.4-.4.7-.6v-.2c0,0-.3,0-.5,0h0ZM42.8,137c.2-.2.5-.3.8-.5,2.5.1-1,4.2-2.3,4.4,0-1.2.5-3,1.5-3.9h0ZM53.4,137h0c0-.1-.2-.2-.2-.3s0-.3,0-.4c0-1.1.6-1.6,1.3-2.3,1.6.5.2,1.4-.2,2.3h0c0,.1-.3.2-.4.3-.2,0-.3.2-.4.4h0ZM35.4,149.6c-1.2-.3-2.3-1.1-3.2-2-1.8-1.7-3.2-3.7-4.4-5.7-.3-.6-.7-1.1-1-1.7-.3-.5-.6-1-.8-1.5-.1-.2-.1-.4-.2-.5,0-.3.6-.4.9-.4,3-.4,6-1,8.5-2.4,2.2-1.2,5.6-3.8,3.9-6.6-.5-.9-1.3-1.5-2.3-1.9-.7-.3-1.6-.5-2.4-.5s-1.4,0-2.1,0c-.2,0-.4,0-.6,0-.6,0-1.7,0-2.2.2-.4,0-1.1,0-1.4.3h-.7c-.1,0-.2,0-.2,0-.2,0-.5.2-.8.3-.3,0-.5,0-.8.2-.7.2-1.4.4-2,.6-4.8,1.6-9.7,4.3-13.1,7.1-1.5,1.2-3.5,3.1-4.1,4.8h0c.4.1,1.5-.8,1.7-1.1.4-.5.8-1.1,1.3-1.6.7-.7,1.3-1.1,2.1-1.7.9-.7,2-1.3,3-1.8.2-.1.5-.2.7-.3,3.4-1.9,7.2-3.2,10.9-4.4,1.6-.5,3.2-.9,4.9-1.1.5,0,.9,0,1.4,0,1,0,2.5-.3,3.5,0,.5,0,1.4.2,1.7.7.6.7,0,1.6-.5,2.2,0,.1-.2.4-.4.4h0c0,.2-.2.3-.4.5-.4.4-.9.8-1.4,1.1-.3.2-.5.4-.8.6-1.3.8-2.6,1.4-4,2-.3.2-.6.3-1,.5-.7.3-1.4.5-2.1.7-.4,0-1.2.3-1.5.4h-.7c-.2-.1-.5-.1-.7-.2-.4,0-.8-.1-1.2-.1,0-.5.3-.9.4-1.2.5-1.2,1.1-2.4,1.7-3.6.1-.3.3-.6.4-.9,0-.2,0-.4-.2-.5-.3-.1-.5,0-.7.2s-.6.9-.6,1.1c-.2.4-.5.8-.7,1.2-.9,1.7-1.8,3.4-2.7,5.1-.3.6-.6,1.3-1,1.9-.1,0,0,.1-.1.2-.2.6-.6,1.1-.9,1.7-.4.7-.7,1.4-1.1,2.1-.1.2-.2.4-.2.6-.3.6-.8,1.5-.8,2.2-.1.7.2,1.2.3,1.8.1.7.3,1.4,1,1.7,0,0,.5-.6.6-.8.2-.7.3-1.3.5-2,.4-1.1.7-2.2,1.1-3.3.4-1.2,1-2.4,1.4-3.5.1-.3.3-.6.4-1,.2-.5.3-1.2.7-1.6h.1c0-.1.1-.1.1-.1,0,.2.4.6.5.8.4.6.8,1.3,1.2,2,1.7,2.9,3.6,5.8,6.4,8,.8.6,1.6,1.1,2.6,1.4.4.1,1.1.2,1.6.1.3,0,.6-.1.9-.1h0c.1-.5,0-.6-.3-.6h0Z"></path><path class="cls-5" d="M100.3,123.2c-.4,0-.8,0-1.1.2-.4,0-.7,0-1.1.2-.4,0-1,0-1.4.3-.3,0-1.1.2-1.4.3h-.4c-.4,0-.9,0-1.2.3-.3,0-.5,0-.7,0-.4,0-1,0-1.3.2-.2,0-.4,0-.5,0h-.6c0-.3.2-.5.4-.7.5-.9.8-1.6,0-2.5-.3-.3-.5-.6-1-.7-.4.5-.5,1.1-.7,1.7s-.5,1.1-.8,1.6-.5,1.1-.9,1.4-1.5.5-2,.6c-.5.2-1,.4-1.5.5-.7.3-1.6.5-2.3,1q0,0,0,0c0,0,0,0,0,.2-.5.3-1,.6-1.5.8-.3.2-.6.4-1,.6-1.7,1-3.2,2.7-4.3,4.2-.2.3-.5.7-.6,1.1h-.3c0-.3,0-.5,0-.8,0-1.2-.2-2.2-1.3-2.6-.3-.1-.9-.2-1.3-.1-1.4,0-2.5.8-3.6,1.3-.4.2-.7.5-1.1.6-.6.1-1.1-.3-1.6-.4-.3-.1-.7.1-.7.5,0,.7,1.1.8,1.5,1.1,0,.1.2.3.3.4.6,1,.4,2.6,0,3.6s-.8,1.1-1.4,1.5c-.3.1-.5.2-.7.3-.4,0-.8-.2-.8-.6s0-1,.2-1.4c0-.4.4-.8.6-1.1.5-.6,1.9-2.1.2-2.5-1.4-.3-4.4,1.6-5.5,2.3-.7.4-1.4.8-2.1,1.2-.8.5-1.4,1.3-2.5,1.4,0-.6-1.1-1.2-1-1.9,0-.4.4-.7.7-1,.6-.8,1.7-2.2.6-3.1-.3-.2-.7-.2-1-.3h0c0,.1-.2.2-.3.2-.9.2-1.7,1-2.2,1.8-.4.6-.6,1.4-.5,2.1,0,.4.3.9,0,1.3-.2.3-1.2,1-1.5,1.2-1.1.8-5.3,3.8-6.6,3.4h0c-.5.1-1-.2-1.4-.4,0-.3,1.1-1,1.4-1.3,1-1.1,3.5-4.7,1.3-5.6q0-.1,0-.1h-.7c-.6.1-1.3.4-1.8.7-1.1.7-1.9,2.2-2.3,3.3-.2.6-.4,1.3-.5,1.9,0,.2-.4.2-.6.4-.4,0-.8.2-1.2.2h-2.1c-.2,0-.5,0-.7.1h0c0,.3.3.6.5.8.9.8,2.3.9,3.6.7.3,0,.6-.1.9-.2.3,0,.8.6,1,.7,1.1.9,2.7.6,3.9.1,1.6-.7,3.1-1.7,4.6-2.8.7-.5,1.4-1.1,2.1-1.6.2-.2.9-.8,1.2-.8s1.4,1.3,1.3,1.7c0,.3-.4.4-.5.7-.2.2-.3.4-.4.7-.3.9.2,1.8,1.3,1.2.8-.4,1.3-1.4,1.5-2.1,0-.3,0-.7.3-.9.3-.4.8-.7,1.2-1,2-1.6,4.7-3.2,7.5-3.2v.2c0,0-.4.4-.4.6-.8,1.1-1.5,2.3-1.1,3.8,0,.2.2.5.3.7.3,0,.7.4,1,.5s.7.1,1,.1c2.8-.2,3.7-3.4,3.5-5.8,0-.4,0-.7-.2-1.1,0-.4-.3-.7-.3-1.1.6,0,1.2,0,1.8-.1,1-.3,2.3-1.4,3.5-1.1.3.1.6.3.7.7.2.6,0,1.2,0,1.8-.2,1-.5,1.9-.8,2.9,0,.3,0,.6-.3.9,0,.4,1,1.6,1.3,2,.2,0,.4-.3.5-.4.4-.4.4-1.1.6-1.6.5-1.3,1-2.7,1.6-4,.3-.4.5-.8.7-1.2,1.1-1.7,2.3-3.7,4.4-4.4.8-.3,1.8-.3,2.6-.5.5-.1,1.1-.2,1.7-.4.3-.1.5-.2.9-.2,0,.4-.3.8-.5,1.1,0,0-.2.6-.3.6-.4.7-.8,1.4-1.2,2.2l-.7,1.4c0,.3-.2.7-.3,1,0,.4,0,.8-.3,1.2,0,.4,0,.7,0,1.1,0,.7.2,1.5.5,2.1s.2.3.3.4c.7,1.3,2.5,2.1,4.1,2.1s.9,0,1.2-.1q0,.1,0,0h0c.3-.1.7-.1,1.1-.2.6-.2,1.1-.5,1.7-.7,2-.9,3.5-2.5,4.6-4.3.2-.4.6-.8.5-1.2h-.2c0,.1-.5.6-.6.8-.6,1.2-1.8,2.3-3,3-.3.2-.5.3-.8.5-.4.1-.8.3-1.2.4-.4.1-.7.2-1.1.3-.9,0-1.8,0-2.5-.3-3.9-1.7-1-8.3.4-10.5.3-.5.6-1.1.9-1.6,0,0,.2,0,.3,0,1.1-.3,2.3-.6,3.4-.8.6-.2,1.3-.4,1.9-.5,1.5-.5,3-.9,4.4-1.5.2,0,.4-.2.6-.3.2,0,.5-.3.8-.4.2-.2.5-.4.7-.6v-.2c-.4-.3-.7-.3-.9-.2h0ZM42,136.7c.2-.2.5-.3.7-.5,2.5.1-1,4.2-2.3,4.4,0-1.3.6-3.1,1.6-3.9h0ZM52.7,136.6q-.1,0,0,0t0,0h0c0-.1-.2-.2-.2-.3s0-.3,0-.4c0-1.1.6-1.6,1.3-2.3,1.6.5.2,1.4-.2,2.3h0c0,.1-.3.2-.4.3-.3,0-.4.3-.4.4h0ZM34.7,149.2c-1.2-.3-2.3-1.1-3.2-2-1.8-1.7-3.2-3.7-4.4-5.7-.3-.6-.8-1.1-1.1-1.7-.3-.5-.6-1-.8-1.5-.1-.2-.1-.4-.2-.5,0-.3.6-.4.9-.5,3-.4,6-1,8.5-2.4,2.2-1.2,5.6-3.8,3.9-6.6-.5-.9-1.3-1.5-2.3-1.9-.8-.3-1.6-.5-2.5-.5-.7,0-1.4,0-2.1,0-.2,0-.4,0-.5,0-.6,0-1.8,0-2.2.2-.4,0-1.1,0-1.4.3-.2,0-.5,0-.7,0h0c-.1,0-.2,0-.2,0-.3,0-.5.2-.8.3-.3,0-.5,0-.8.2-.7.2-1.4.4-2,.6-4.8,1.6-9.7,4.3-13.1,7.1-1.5,1.2-3.5,3.1-4.1,4.8h0c.5.1,1.5-.8,1.7-1.1.4-.5.8-1.1,1.3-1.6.6-.7,1.3-1.2,2.1-1.7.9-.7,2-1.3,3-1.8.2-.1.4-.2.7-.3,3.4-1.9,7.2-3.2,10.9-4.4,1.6-.5,3.2-.9,4.9-1.1.5,0,.9,0,1.4,0,1,0,2.5-.3,3.5,0,.5,0,1.4.2,1.8.6.6.7,0,1.7-.6,2.2,0,.2-.2.4-.4.4h0c0-.1,0-.1,0-.1,0,.2-.2.3-.4.5-.4.4-.9.8-1.4,1.1-.3.2-.6.4-.8.6-1.3.8-2.6,1.4-4,2-.3.2-.7.3-1,.5-.7.2-1.4.5-2.1.7-.4,0-1.2.2-1.5.4h-.7c-.2-.1-.5-.1-.7-.2-.4-.1-.8-.1-1.2-.2,0-.5.3-.9.4-1.2.5-1.2,1.1-2.4,1.6-3.6.1-.3.3-.6.4-.9,0-.2,0-.4-.2-.4-.3-.1-.5,0-.7.2s-.6.9-.6,1.1c-.2.4-.4.8-.7,1.2-.9,1.7-1.8,3.4-2.7,5.1-.3.6-.6,1.3-1,1.9-.1,0-.1.1-.1.2-.2.6-.6,1.1-.8,1.7-.4.7-.7,1.4-1.1,2.1-.1.2-.2.4-.2.6-.3.6-.7,1.5-.8,2.2s.2,1.1.3,1.7c.1.7.2,1.4,1,1.7,0,0,.5-.6.6-.8.2-.7.3-1.3.5-2,.4-1.1.7-2.2,1.1-3.3.4-1.2,1-2.3,1.4-3.5.1-.3.3-.7.4-1,.2-.5.3-1.2.7-1.6,0,0,.1,0,.1-.1h.1c0,.2.4.6.5.8.4.6.8,1.3,1.2,2,1.7,2.9,3.6,5.8,6.4,8,.8.6,1.7,1.1,2.6,1.4.4.1,1.1.2,1.6.1.3-.1.6-.1.9-.1h0c.2-.2,0-.2,0-.3h0Z"></path></svg> 